<?xml version="1.0" encoding="UTF-8" standalone="no"?>
<!-- Svg Vector Icons : http://www.onlinewebfonts.com/icon -->

<svg
   version="1.1"
   x="0px"
   y="0px"
   viewBox="0 0 1000 1000"
   enable-background="new 0 0 1000 1000"
   xml:space="preserve"
   id="svg8"
   sodipodi:docname="next.svg"
   inkscape:version="1.1.2 (0a00cf5339, 2022-02-04)"
   xmlns:inkscape="http://www.inkscape.org/namespaces/inkscape"
   xmlns:sodipodi="http://sodipodi.sourceforge.net/DTD/sodipodi-0.dtd"
   xmlns="http://www.w3.org/2000/svg"
   xmlns:svg="http://www.w3.org/2000/svg"><defs
   id="defs12" /><sodipodi:namedview
   id="namedview10"
   pagecolor="#505050"
   bordercolor="#ffffff"
   borderopacity="1"
   inkscape:pageshadow="0"
   inkscape:pageopacity="0"
   inkscape:pagecheckerboard="1"
   showgrid="false"
   inkscape:zoom="0.873"
   inkscape:cx="490.8362"
   inkscape:cy="499.42726"
   inkscape:window-width="3838"
   inkscape:window-height="2128"
   inkscape:window-x="0"
   inkscape:window-y="30"
   inkscape:window-maximized="0"
   inkscape:current-layer="svg8" />
<metadata
   id="metadata2"> Svg Vector Icons : http://www.onlinewebfonts.com/icon </metadata>
<g
   id="g6"
   style="fill:#ffffff"><path
     d="M500,10C229.4,10,10,229.4,10,500s219.4,490,490,490s490-219.4,490-490S770.6,10,500,10z M795,533.7L556.3,772.5c-28.9,28.9-74.9,30.1-105.2,3.7c1.2,1.3,2.4,2.7,3.7,3.9l-7.6-7.6c1.3,1.3,2.6,2.5,3.9,3.7c-26.4-30.3-25.2-76.3,3.6-105.2L556,569.7H261c-38.7,0-70.2-31.4-70.2-70.2c0-38.7,31.4-70.2,70.2-70.2h295L454.8,328.2c-28.9-28.9-30.1-74.9-3.6-105.2c-1.3,1.2-2.7,2.4-3.9,3.7l7.6-7.6c-1.3,1.3-2.5,2.6-3.7,3.9c30.3-26.4,76.3-25.2,105.2,3.7L795,465.3c7.9,7.9,12.5,18,13.8,28.3C810.6,507.9,806,522.8,795,533.7z"
     id="path4"
     style="fill:#ffffff" /></g>
</svg>
